 <svg class="mt-1.5 mx-3" width="16" height="18" viewBox="0 0 16 16" fill="none"
              xmlns="http://www.w3.org/2000/svg">
              <path
                d="M10.3787 2C10.2105 1.99998 10.0466 1.99996 9.90785 2.0113C9.75546 2.02375 9.57563 2.05313 9.39468 2.14533C9.1438 2.27316 8.93983 2.47713 8.81199 2.72802C8.7198 2.90897 8.69042 3.08879 8.67797 3.24118C8.66663 3.37996 8.66665 3.54382 8.66667 3.71207V5.62127C8.66665 5.78952 8.66663 5.95338 8.67797 6.09216C8.69042 6.24455 8.7198 6.42438 8.81199 6.60532C8.93983 6.85621 9.1438 7.06018 9.39468 7.18801C9.57563 7.28021 9.75546 7.30959 9.90785 7.32204C10.0466 7.33338 10.2105 7.33336 10.3787 7.33334H12.2879C12.4562 7.33336 12.6201 7.33338 12.7588 7.32204C12.9112 7.30959 13.091 7.28021 13.272 7.18801C13.5229 7.06018 13.7268 6.85621 13.8547 6.60532C13.9469 6.42438 13.9763 6.24455 13.9887 6.09216C14 5.95338 14 5.78952 14 5.62127V3.71207C14 3.54382 14 3.37996 13.9887 3.24118C13.9763 3.08879 13.9469 2.90897 13.8547 2.72802C13.7268 2.47713 13.5229 2.27316 13.272 2.14533C13.091 2.05313 12.9112 2.02375 12.7588 2.0113C12.6201 1.99996 12.4562 1.99998 12.2879 2L10.3787 2Z"
                fill="white" />
              <path
                d="M3.71207 8.66667C3.54382 8.66665 3.37996 8.66663 3.24118 8.67797C3.08879 8.69042 2.90897 8.7198 2.72802 8.81199C2.47713 8.93983 2.27316 9.1438 2.14533 9.39468C2.05313 9.57563 2.02375 9.75546 2.0113 9.90785C1.99996 10.0466 1.99998 10.2105 2 10.3787L2 12.2879C1.99998 12.4562 1.99996 12.6201 2.0113 12.7588C2.02375 12.9112 2.05313 13.091 2.14533 13.272C2.27316 13.5229 2.47713 13.7268 2.72802 13.8547C2.90897 13.9469 3.08879 13.9763 3.24118 13.9887C3.37996 14 3.54382 14 3.71207 14H5.62127C5.78952 14 5.95338 14 6.09216 13.9887C6.24455 13.9763 6.42438 13.9469 6.60532 13.8547C6.85621 13.7268 7.06018 13.5229 7.18801 13.272C7.28021 13.091 7.30959 12.9112 7.32204 12.7588C7.33338 12.6201 7.33336 12.4562 7.33334 12.288V10.3787C7.33336 10.2105 7.33338 10.0466 7.32204 9.90785C7.30959 9.75546 7.28021 9.57563 7.18801 9.39468C7.06018 9.1438 6.85621 8.93983 6.60532 8.81199C6.42438 8.7198 6.24455 8.69042 6.09216 8.67797C5.95338 8.66663 5.78952 8.66665 5.62127 8.66667H3.71207Z"
                fill="white" />
              <path
                d="M10.3787 8.66667C10.2105 8.66665 10.0466 8.66663 9.90785 8.67797C9.75546 8.69042 9.57563 8.7198 9.39468 8.81199C9.1438 8.93983 8.93983 9.1438 8.81199 9.39468C8.7198 9.57563 8.69042 9.75546 8.67797 9.90785C8.66663 10.0466 8.66665 10.2105 8.66667 10.3787V12.2879C8.66665 12.4562 8.66663 12.6201 8.67797 12.7588C8.69042 12.9112 8.7198 13.091 8.81199 13.272C8.93983 13.5229 9.1438 13.7268 9.39468 13.8547C9.57563 13.9469 9.75546 13.9763 9.90785 13.9887C10.0466 14 10.2105 14 10.3787 14H12.2879C12.4562 14 12.6201 14 12.7588 13.9887C12.9112 13.9763 13.091 13.9469 13.272 13.8547C13.5229 13.7268 13.7268 13.5229 13.8547 13.272C13.9469 13.091 13.9763 12.9112 13.9887 12.7588C14 12.6201 14 12.4562 14 12.2879V10.3787C14 10.2105 14 10.0466 13.9887 9.90785C13.9763 9.75546 13.9469 9.57563 13.8547 9.39468C13.7268 9.1438 13.5229 8.93983 13.272 8.81199C13.091 8.7198 12.9112 8.69042 12.7588 8.67797C12.6201 8.66663 12.4562 8.66665 12.2879 8.66667H10.3787Z"
                fill="white" />
              <path
                d="M3.71207 2C3.54382 1.99998 3.37995 1.99996 3.24118 2.0113C3.08879 2.02375 2.90897 2.05313 2.72802 2.14533C2.47713 2.27316 2.27316 2.47713 2.14533 2.72802C2.05313 2.90897 2.02375 3.08879 2.0113 3.24118C1.99996 3.37995 1.99998 3.54381 2 3.71206L2 5.62127C1.99998 5.78952 1.99996 5.95339 2.0113 6.09216C2.02375 6.24455 2.05313 6.42438 2.14533 6.60532C2.27316 6.85621 2.47713 7.06018 2.72802 7.18801C2.90897 7.28021 3.08879 7.30959 3.24118 7.32204C3.37995 7.33338 3.5438 7.33336 3.71205 7.33334H5.62127C5.78952 7.33336 5.95339 7.33338 6.09216 7.32204C6.24455 7.30959 6.42438 7.28021 6.60532 7.18801C6.85621 7.06018 7.06018 6.85621 7.18801 6.60532C7.28021 6.42438 7.30959 6.24455 7.32204 6.09216C7.33338 5.95339 7.33336 5.78954 7.33334 5.62129V3.71207C7.33336 3.54382 7.33338 3.37995 7.32204 3.24118C7.30959 3.08879 7.28021 2.90897 7.18801 2.72802C7.06018 2.47713 6.85621 2.27316 6.60532 2.14533C6.42438 2.05313 6.24455 2.02375 6.09216 2.0113C5.95339 1.99996 5.78953 1.99998 5.62128 2L3.71207 2Z"
                fill="#DC6B5A" />
            </svg>