<svg width="272" height="233" viewBox="0 0 272 233" fill="none" xmlns="http://www.w3.org/2000/svg">
<g clip-path="url(#clip0_2262_978)">
<path d="M269.642 174.308H39.2553C38.6672 174.308 38.2051 173.846 38.2051 173.258C38.2051 172.67 38.6672 172.208 39.2553 172.208H269.642C270.231 172.208 270.693 172.67 270.693 173.258C270.693 173.846 270.231 174.308 269.642 174.308Z" fill="white"/>
<path d="M269.642 140.094H39.2553C38.6672 140.094 38.2051 139.631 38.2051 139.043C38.2051 138.455 38.6672 137.993 39.2553 137.993H269.642C270.231 137.993 270.693 138.455 270.693 139.043C270.693 139.631 270.231 140.094 269.642 140.094Z" fill="white"/>
<path d="M269.642 105.858H39.2553C38.6672 105.858 38.2051 105.396 38.2051 104.807C38.2051 104.219 38.6672 103.757 39.2553 103.757H269.642C270.231 103.757 270.693 104.219 270.693 104.807C270.693 105.396 270.231 105.858 269.642 105.858Z" fill="white"/>
<path d="M269.642 71.6218H39.2553C38.6672 71.6218 38.2051 71.1598 38.2051 70.5717C38.2051 69.9836 38.6672 69.5215 39.2553 69.5215H269.642C270.231 69.5215 270.693 69.9836 270.693 70.5717C270.693 71.1598 270.231 71.6218 269.642 71.6218Z" fill="white"/>
<path d="M269.642 37.386H39.2553C38.6672 37.386 38.2051 36.9239 38.2051 36.3358C38.2051 35.7477 38.6672 35.2856 39.2553 35.2856H269.642C270.231 35.2856 270.693 35.7477 270.693 36.3358C270.693 36.9239 270.231 37.386 269.642 37.386Z" fill="white"/>
<path d="M269.642 3.15064H39.2553C38.6672 3.15064 38.2051 2.68857 38.2051 2.10047C38.2051 1.51237 38.6672 1.05029 39.2553 1.05029H269.642C270.231 1.05029 270.693 1.51237 270.693 2.10047C270.693 2.68857 270.231 3.15064 269.642 3.15064Z" fill="white"/>
<path d="M268.95 209.594H29.2371C28.0819 209.594 27.1367 208.649 27.1367 207.493V2.10035C27.1367 0.945157 28.0819 0 29.2371 0C30.3923 0 31.3374 0.945157 31.3374 2.10035V205.393H268.929C270.084 205.393 271.029 206.338 271.029 207.493C271.029 208.649 270.084 209.594 268.929 209.594H268.95Z" fill="white"/>
<path d="M6.7418 195.039H5.31356V186.175L2.89816 187.646L2.28906 186.637L5.5026 184.642H6.7628V195.018L6.7418 195.039Z" fill="white"/>
<path d="M16.2573 189.872C16.2573 193.316 15.1231 195.227 12.7917 195.227C10.4604 195.227 9.32617 193.295 9.32617 189.872C9.32617 186.448 10.4814 184.516 12.7917 184.516C15.1021 184.516 16.2573 186.448 16.2573 189.872ZM10.7964 189.872C10.7964 192.938 11.4895 194.114 12.7917 194.114C14.094 194.114 14.7871 192.938 14.7871 189.872C14.7871 186.805 14.094 185.65 12.7917 185.65C11.4895 185.65 10.7964 186.826 10.7964 189.872Z" fill="white"/>
<path d="M24.9097 189.872C24.9097 193.316 23.7545 195.227 21.4441 195.227C19.1337 195.227 17.9785 193.295 17.9785 189.872C17.9785 186.448 19.1127 184.516 21.4441 184.516C23.7755 184.516 24.9097 186.448 24.9097 189.872ZM19.4488 189.872C19.4488 192.938 20.1209 194.114 21.4441 194.114C22.7673 194.114 23.4394 192.938 23.4394 189.872C23.4394 186.805 22.7463 185.65 21.4441 185.65C20.1419 185.65 19.4488 186.826 19.4488 189.872Z" fill="white"/>
<path d="M6.44801 153.073C6.44801 155.005 5.20881 156.391 2.01628 159.563H6.67905L6.51102 160.76H0.399007V159.626C4.05361 155.803 4.95676 154.816 4.95676 153.115C4.95676 152.023 4.26365 151.393 3.25548 151.393C2.39434 151.393 1.80624 151.729 1.13413 152.527L0.167969 151.771C1.00811 150.741 2.01628 150.195 3.31849 150.195C5.22981 150.195 6.44801 151.414 6.44801 153.031V153.073Z" fill="white"/>
<path d="M15.2905 155.573C15.2905 159.017 14.1563 160.929 11.825 160.929C9.49356 160.929 8.35938 158.996 8.35938 155.573C8.35938 152.149 9.51457 150.217 11.825 150.217C14.1353 150.217 15.2905 152.149 15.2905 155.573ZM9.82962 155.573C9.82962 158.639 10.5227 159.815 11.825 159.815C13.1272 159.815 13.8203 158.639 13.8203 155.573C13.8203 152.506 13.1272 151.351 11.825 151.351C10.5227 151.351 9.82962 152.527 9.82962 155.573Z" fill="white"/>
<path d="M23.9448 155.573C23.9448 159.017 22.7896 160.929 20.4792 160.929C18.1689 160.929 17.0137 158.996 17.0137 155.573C17.0137 152.149 18.1479 150.217 20.4792 150.217C22.8106 150.217 23.9448 152.149 23.9448 155.573ZM18.4839 155.573C18.4839 158.639 19.156 159.815 20.4792 159.815C21.8025 159.815 22.4746 158.639 22.4746 155.573C22.4746 152.506 21.7815 151.351 20.4792 151.351C19.177 151.351 18.4839 152.527 18.4839 155.573Z" fill="white"/>
<path d="M6.32205 118.586C6.32205 119.91 5.46091 120.708 4.30571 120.981C5.60793 121.107 6.65811 121.926 6.65811 123.501C6.65811 125.328 5.27188 126.694 3.10852 126.694C1.86931 126.694 0.777129 126.253 0 125.286L0.861143 124.488C1.53325 125.202 2.24737 125.518 3.06651 125.518C4.36873 125.518 5.16686 124.719 5.16686 123.48C5.16686 122.052 4.36873 121.611 3.10852 121.611H2.33139L2.49942 120.498H3.0245C4.05367 120.498 4.89381 119.868 4.89381 118.67C4.89381 117.704 4.2217 117.095 3.17153 117.095C2.35239 117.095 1.72229 117.368 1.02917 118.019L0.273045 117.158C1.15519 116.339 2.12135 115.94 3.23454 115.94C5.20886 115.94 6.30105 117.179 6.30105 118.565L6.32205 118.586Z" fill="white"/>
<path d="M15.312 121.296C15.312 124.74 14.1568 126.673 11.8464 126.673C9.53605 126.673 8.38086 124.74 8.38086 121.296C8.38086 117.851 9.53605 115.94 11.8464 115.94C14.1568 115.94 15.312 117.872 15.312 121.296ZM9.8511 121.296C9.8511 124.362 10.5232 125.539 11.8464 125.539C13.1697 125.539 13.8418 124.362 13.8418 121.296C13.8418 118.229 13.1487 117.074 11.8464 117.074C10.5442 117.074 9.8511 118.25 9.8511 121.296Z" fill="white"/>
<path d="M23.9644 121.296C23.9644 124.74 22.8092 126.673 20.4988 126.673C18.1884 126.673 17.0332 124.74 17.0332 121.296C17.0332 117.851 18.1884 115.94 20.4988 115.94C22.8092 115.94 23.9644 117.872 23.9644 121.296ZM18.5034 121.296C18.5034 124.362 19.1756 125.539 20.4988 125.539C21.822 125.539 22.4941 124.362 22.4941 121.296C22.4941 118.229 21.801 117.074 20.4988 117.074C19.1966 117.074 18.5034 118.25 18.5034 121.296Z" fill="white"/>
<path d="M7.28914 89.6425H5.94492V92.2049H4.55869V89.6425H0.126953V88.6133L3.23547 81.6611L4.43267 82.1652L1.6182 88.5083H4.55869L4.68471 85.7148H5.92392V88.5083H7.26814V89.6425H7.28914Z" fill="white"/>
<path d="M15.564 87.017C15.564 90.4616 14.4298 92.3939 12.0984 92.3939C9.767 92.3939 8.63281 90.4616 8.63281 87.017C8.63281 83.5724 9.788 81.6611 12.0984 81.6611C14.4088 81.6611 15.564 83.5935 15.564 87.017ZM10.1031 87.017C10.1031 90.0835 10.7962 91.2597 12.0984 91.2597C13.4006 91.2597 14.0937 90.0835 14.0937 87.017C14.0937 83.9505 13.4006 82.7953 12.0984 82.7953C10.7962 82.7953 10.1031 83.9715 10.1031 87.017Z" fill="white"/>
<path d="M24.2378 87.017C24.2378 90.4616 23.0826 92.3939 20.7722 92.3939C18.4618 92.3939 17.3066 90.4616 17.3066 87.017C17.3066 83.5724 18.4408 81.6611 20.7722 81.6611C23.1036 81.6611 24.2378 83.5935 24.2378 87.017ZM18.7769 87.017C18.7769 90.0835 19.449 91.2597 20.7722 91.2597C22.0954 91.2597 22.7675 90.0835 22.7675 87.017C22.7675 83.9505 22.0744 82.7953 20.7722 82.7953C19.47 82.7953 18.7769 83.9715 18.7769 87.017Z" fill="white"/>
<path d="M6.2585 48.6645H2.20483V51.731C2.75092 51.4579 3.31801 51.3319 3.8641 51.3319C5.60739 51.3319 6.80459 52.5501 6.80459 54.6085C6.80459 56.6668 5.35535 58.116 3.21299 58.116C1.88977 58.116 0.944617 57.612 0.146484 56.7928L1.00763 55.9527C1.61673 56.6248 2.28884 56.9398 3.19199 56.9398C4.49421 56.9398 5.31334 56.0787 5.31334 54.5664C5.31334 52.9702 4.49421 52.4031 3.42303 52.4031C2.85593 52.4031 2.45687 52.5291 1.95278 52.7601H0.860603V47.5303H6.46853L6.2585 48.6435V48.6645Z" fill="white"/>
<path d="M15.3335 52.7607C15.3335 56.2052 14.1783 58.1166 11.8679 58.1166C9.55754 58.1166 8.40234 56.1842 8.40234 52.7607C8.40234 49.3371 9.55754 47.4048 11.8679 47.4048C14.1783 47.4048 15.3335 49.3371 15.3335 52.7607ZM9.87259 52.7607C9.87259 55.8272 10.5447 57.0034 11.8679 57.0034C13.1911 57.0034 13.8633 55.8272 13.8633 52.7607C13.8633 49.6942 13.1701 48.539 11.8679 48.539C10.5657 48.539 9.87259 49.7152 9.87259 52.7607Z" fill="white"/>
<path d="M23.9858 52.7607C23.9858 56.2052 22.8306 58.1166 20.5203 58.1166C18.2099 58.1166 17.0547 56.1842 17.0547 52.7607C17.0547 49.3371 18.2099 47.4048 20.5203 47.4048C22.8306 47.4048 23.9858 49.3371 23.9858 52.7607ZM18.5249 52.7607C18.5249 55.8272 19.197 57.0034 20.5203 57.0034C21.8435 57.0034 22.5156 55.8272 22.5156 52.7607C22.5156 49.6942 21.8225 48.539 20.5203 48.539C19.218 48.539 18.5249 49.7152 18.5249 52.7607Z" fill="white"/>
<path d="M7.16303 20.1216C7.16303 22.39 5.69279 23.8182 3.86548 23.8182C1.34507 23.8182 0.378906 21.7389 0.378906 18.7564C0.378906 15.3538 1.84915 13.0854 4.30656 13.0854C5.1467 13.0854 5.83981 13.3165 6.44891 13.7156L5.88182 14.6607C5.39874 14.3667 4.85265 14.2196 4.28555 14.2196C2.79431 14.2196 1.89116 15.7949 1.80714 18.1683C2.50026 17.2021 3.31939 16.8031 4.30656 16.8031C5.81881 16.8031 7.18404 17.8952 7.18404 20.1006L7.16303 20.1216ZM5.71379 20.1846C5.71379 18.5464 5.02068 17.9583 4.03351 17.9583C3.10936 17.9583 2.33223 18.5254 1.80714 19.3865C1.87015 21.6549 2.47925 22.705 3.84448 22.705C5.06268 22.705 5.71379 21.6969 5.71379 20.1846Z" fill="white"/>
<path d="M15.5854 18.4623C15.5854 21.9069 14.4513 23.8182 12.1199 23.8182C9.78849 23.8182 8.6543 21.8859 8.6543 18.4623C8.6543 15.0388 9.80949 13.1064 12.1199 13.1064C14.4303 13.1064 15.5854 15.0388 15.5854 18.4623ZM10.1245 18.4623C10.1245 21.5288 10.8177 22.705 12.1199 22.705C13.4221 22.705 14.1152 21.5288 14.1152 18.4623C14.1152 15.3958 13.4221 14.2406 12.1199 14.2406C10.8177 14.2406 10.1245 15.4168 10.1245 18.4623Z" fill="white"/>
<path d="M24.2378 18.4623C24.2378 21.9069 23.0826 23.8182 20.7722 23.8182C18.4618 23.8182 17.3066 21.8859 17.3066 18.4623C17.3066 15.0388 18.4408 13.1064 20.7722 13.1064C23.1036 13.1064 24.2378 15.0388 24.2378 18.4623ZM18.7769 18.4623C18.7769 21.5288 19.449 22.705 20.7722 22.705C22.0954 22.705 22.7675 21.5288 22.7675 18.4623C22.7675 15.3958 22.0744 14.2406 20.7722 14.2406C19.47 14.2406 18.7769 15.4168 18.7769 18.4623Z" fill="white"/>
<path d="M64.377 232.089H61.9826V223.981L59.7352 225.368L58.6641 223.729L62.1926 221.587H64.377V232.068V232.089Z" fill="white"/>
<path d="M111.55 224.38C111.55 226.019 110.752 227.237 107.475 230.219H111.76L111.508 232.089H104.682V230.345C108.21 226.88 109.029 225.935 109.029 224.632C109.029 223.771 108.504 223.267 107.685 223.267C106.929 223.267 106.404 223.603 105.795 224.359L104.346 223.204C105.186 222.112 106.383 221.398 107.937 221.398C110.29 221.398 111.55 222.763 111.55 224.401V224.38Z" fill="white"/>
<path d="M155.53 224.044C155.53 225.325 154.774 226.165 153.493 226.543C154.795 226.69 155.887 227.467 155.887 229.127C155.887 230.87 154.48 232.361 151.896 232.361C150.321 232.361 149.124 231.773 148.305 230.786L149.628 229.505C150.321 230.198 150.951 230.513 151.77 230.513C152.736 230.513 153.409 229.946 153.409 229.001C153.409 227.888 152.799 227.488 151.707 227.488H150.846L151.098 225.808H151.707C152.631 225.808 153.219 225.304 153.219 224.443C153.219 223.687 152.673 223.225 151.812 223.225C151.035 223.225 150.384 223.54 149.775 224.149L148.557 222.826C149.523 221.902 150.699 221.418 152.085 221.418C154.354 221.418 155.572 222.616 155.572 224.086L155.53 224.044Z" fill="white"/>
<path d="M196.34 229.82H195.164V232.089H192.77V229.82H188.338V228.182L191.32 221.314L193.4 222.091L190.879 227.972H192.812L193.064 225.494H195.164V227.972H196.34V229.799V229.82Z" fill="white"/>
<path d="M241.373 223.351H237.571V225.557C238.096 225.305 238.621 225.221 239.125 225.221C240.847 225.221 242.129 226.46 242.129 228.623C242.129 230.786 240.511 232.341 238.012 232.341C236.416 232.341 235.303 231.669 234.525 230.765L235.912 229.484C236.437 230.114 237.067 230.492 237.928 230.492C238.978 230.492 239.629 229.841 239.629 228.623C239.629 227.321 239.02 226.88 238.159 226.88C237.739 226.88 237.382 226.985 236.899 227.258H235.24V221.587H241.667L241.394 223.33L241.373 223.351Z" fill="white"/>
<path d="M257.44 184.243L237.193 95.965L195.249 130.201L169.204 28.1238L108.777 99.7877L78.0703 83.3839L40.6001 115.015L37.8906 111.823L77.5452 78.3431L107.748 94.4948L171.242 19.1763L197.685 122.786L239.776 88.4458L261.536 183.319L257.44 184.243Z" fill="#FFD972"/>
<path d="M224.8 165.592L204.679 75.2348L108.273 163.596L70.6556 129.508L47.9088 156.77L44.6953 154.082L70.2566 123.459L108.252 157.925L207.178 67.2114L226.964 155.93L257.818 115.856L261.157 118.418L224.8 165.592Z" fill="#DC6B5A"/>
<path d="M257.397 91.5329L248.387 27.0522L154.627 82.1444L96.5528 59.7127L52.1094 11.9297L55.1969 9.07324L98.9682 56.1421L154.249 77.4816L251.685 20.2471L261.577 90.9448L257.397 91.5329Z" fill="#5B86EC"/>
</g>
<defs>
<clipPath id="clip0_2262_978">
<rect width="271.05" height="232.341" fill="white"/>
</clipPath>
</defs>
</svg>
